<?xml version="1.0" encoding="UTF-8" standalone="no"?>
<!-- Created with Inkscape (http://www.inkscape.org/) -->

<svg
   width="117"
   height="40"
   viewBox="0 0 117 40"
   version="1.1"
   id="svg5"
   xmlns="http://www.w3.org/2000/svg"
   xmlns:svg="http://www.w3.org/2000/svg">
  <defs
     id="defs2" />
  <g
     id="layer1">
    <g
       id="g893"
       transform="translate(-535,-8)">
      <g
         id="g781"
         transform="matrix(0.19728409,0,0,0.19728409,437.44828,-33.536474)"
         style="fill:#000000">
        <g
           aria-label="m"
           id="text407"
           style="font-size:547.445px;fill:#000000;stroke-width:45.6204">
          <path
             id="path1075"
             style="font-family:Hedland;-inkscape-font-specification:Hedland;fill:#000000;stroke-width:51.516"
             d="m 602.32502,230.47074 c -4.53343,0 -8.03656,5.15311 -10.50927,15.45615 -5.35759,16.07293 -10.5086,29.87792 -15.45404,41.41739 -12.36376,29.26081 -18.54613,46.98197 -18.54613,53.16374 0,1.23643 0.41307,2.67877 1.23735,4.32725 2.06057,2.06069 3.9137,3.09221 5.56228,3.09221 3.70901,0 16.07392,-11.54106 37.09228,-34.62001 11.53945,-12.36361 22.04882,-24.10779 31.52772,-35.23513 l 0.61756,20.39867 c 0,9.89101 0.20539,16.0734 0.61754,18.54612 0.41214,2.06073 1.64905,3.71066 3.70964,4.947 2.88487,2.06058 5.35646,3.09 7.41705,3.09 6.59402,0.41201 21.84357,-10.50818 45.7467,-32.76298 13.60014,-12.36364 21.43024,-18.75368 23.49087,-19.16583 0.82425,0 2.26658,3.29773 4.32725,9.89177 3.70906,13.60005 11.33389,20.19323 22.87334,19.78121 5.76972,0 11.7445,-0.82398 17.92637,-2.47241 7.83032,-1.64844 22.66682,-6.38638 44.50932,-14.2167 21.84264,-8.24246 33.58893,-13.39558 35.23749,-15.45631 0.82416,-0.41205 0.41337,-2.05989 -1.23507,-4.94475 -0.82429,-0.82413 -2.06122,-1.4426 -3.7097,-1.85474 -3.29694,0.41214 -13.39563,3.70987 -30.29272,9.89168 -4.09385,1.59496 -7.99554,3.08372 -11.70524,4.46598 -25.04625,9.33305 -41.33749,13.81939 -48.87565,13.46043 -6.59403,0 -11.12867,-3.70855 -13.60139,-11.12684 -4.12116,-13.18791 -8.24063,-19.78125 -12.36181,-19.78125 -2.0607,0.41214 -3.71064,0.61754 -4.94698,0.61754 -3.29701,1.23646 -12.775,8.65349 -28.43562,22.25371 -22.25464,20.19408 -35.23802,30.29265 -38.94716,30.29265 -1.64843,0 -2.4723,-1.8554 -2.4723,-5.56457 0,-5.76973 0.20766,-11.12598 0.61974,-16.07157 0.41206,-4.94547 0.61752,-10.09858 0.61752,-15.45617 0,-4.12128 -0.82392,-6.80056 -2.47236,-8.03685 -2.88487,-1.64859 -5.56412,-2.26479 -8.03683,-1.85264 -3.29703,1.23632 -14.21952,11.95121 -32.76509,32.1453 -10.30304,11.53947 -19.98642,21.84133 -29.05316,30.90809 -0.41214,0 -0.20674,-1.23483 0.61755,-3.70754 0.82429,-2.47273 2.47201,-6.80199 4.94474,-12.98387 2.06056,-6.18188 4.94525,-13.80432 8.65438,-22.87108 8.24246,-19.78194 12.36406,-31.11533 12.36406,-34.0002 l 3.70977,-8.65666 c 2.47274,-5.76974 3.70967,-10.09673 3.70967,-12.98159 0,-2.88488 -1.23693,-4.3272 -3.70967,-4.3272 z m 46.75016,138.2326 c -1.87702,0 -3.58873,0.31465 -5.13451,0.94397 -1.54567,0.6293 -2.8701,1.49612 -3.97427,2.60029 -1.09313,1.10416 -1.94448,2.4065 -2.55175,3.90819 -0.59625,1.50158 -0.8933,3.12519 -0.8933,4.86969 0,1.74452 0.29705,3.36825 0.8933,4.86981 0.60727,1.50155 1.45862,2.81068 2.55175,3.92586 1.10417,1.10403 2.4286,1.97083 3.97427,2.60031 1.54578,0.6293 3.25749,0.94395 5.13451,0.94395 1.87692,0 3.58202,-0.31465 5.11681,-0.94395 1.54572,-0.62948 2.86572,-1.49628 3.95887,-2.60031 1.09297,-1.11518 1.93786,-2.42431 2.5341,-3.92586 0.60727,-1.50156 0.91082,-3.12529 0.91082,-4.86981 0,-1.73347 -0.30355,-3.35047 -0.91082,-4.85203 -0.59624,-1.5017 -1.44113,-2.80404 -2.5341,-3.9082 -1.09315,-1.10417 -2.41315,-1.97101 -3.95887,-2.60031 -1.53479,-0.64038 -3.23989,-0.9616 -5.11681,-0.9616 z m -93.77608,0.26459 v 24.13273 h 4.93374 v -13.87928 c 0,-0.32019 -0.0116,-0.66782 -0.0331,-1.04316 -0.0224,-0.38651 -0.0488,-0.78025 -0.0813,-1.1778 l 6.40917,12.43913 c 0.19883,0.38637 0.46282,0.67907 0.79408,0.87777 0.34227,0.19869 0.72941,0.29778 1.16001,0.29778 h 0.76319 c 0.43061,0 0.81113,-0.0991 1.14237,-0.29778 0.34229,-0.1987 0.61289,-0.4914 0.81166,-0.87777 l 6.40922,-12.40596 c -0.0437,0.38636 -0.0777,0.76924 -0.0992,1.14463 -0.0116,0.37534 -0.0174,0.72297 -0.0174,1.04316 v 13.87928 h 4.93595 v -24.13273 h -4.27427 c -0.24293,0 -0.45629,0.008 -0.64405,0.0174 -0.17665,0.0116 -0.33724,0.0436 -0.4808,0.0993 -0.14348,0.0551 -0.27547,0.14321 -0.39699,0.2646 -0.11042,0.11047 -0.22256,0.27108 -0.33302,0.4808 l -6.19303,12.18992 c -0.23188,0.41958 -0.4519,0.86172 -0.66168,1.32551 -0.1987,0.46371 -0.39233,0.93669 -0.58002,1.42253 -0.18771,-0.47478 -0.38791,-0.93682 -0.59774,-1.38948 -0.19873,-0.45266 -0.40771,-0.8905 -0.62856,-1.31002 l -6.21069,-12.23846 c -0.11046,-0.20972 -0.22699,-0.37036 -0.3485,-0.4808 -0.11042,-0.12142 -0.23575,-0.20945 -0.37934,-0.2646 -0.14354,-0.0551 -0.31074,-0.0881 -0.49844,-0.0993 -0.17665,-0.0116 -0.38562,-0.0174 -0.62856,-0.0174 z m 157.98945,0 v 4.43974 h 6.79075 v 19.69299 h 5.59756 v -19.69299 h 6.79076 v -4.43974 z m 77.04944,0 -9.3425,24.13273 h 4.37348 c 0.46368,0 0.84868,-0.12313 1.1579,-0.36607 0.32025,-0.25396 0.54245,-0.53553 0.66383,-0.84476 l 1.42476,-4.20582 h 9.17498 l 1.42476,4.20582 c 0.15451,0.35332 0.38118,0.64602 0.67922,0.87778 0.2982,0.22089 0.68978,0.33305 1.17555,0.33305 h 4.33824 l -9.34027,-24.13273 z m 67.79079,0 v 24.13273 h 4.9337 v -12.93532 c 0,-0.3533 -0.0116,-0.72945 -0.0329,-1.12699 -0.0116,-0.40856 -0.0374,-0.82875 -0.0813,-1.25936 l 11.37821,14.39324 c 0.28702,0.34226 0.5731,0.58416 0.86012,0.72775 0.29815,0.13254 0.66337,0.20068 1.09398,0.20068 h 2.91571 v -24.13273 h -4.93607 v 12.76993 c 0,0.38653 0.0116,0.80008 0.0331,1.24173 0.0224,0.43061 0.0599,0.87942 0.11464,1.34319 l -11.47738,-14.49244 c -0.15459,-0.18769 -0.29102,-0.33726 -0.41249,-0.44771 -0.12139,-0.11048 -0.24902,-0.1918 -0.38158,-0.24704 -0.13242,-0.0665 -0.28201,-0.11246 -0.44763,-0.13448 -0.16564,-0.0226 -0.37025,-0.0331 -0.61318,-0.0331 z m 73.76978,0 8.74481,14.95562 v 9.17711 h 5.59755 v -9.17711 l 8.74492,-14.95562 h -4.96902 c -0.23185,0 -0.44749,0.0401 -0.6462,0.11701 -0.18768,0.0665 -0.35929,0.16085 -0.51385,0.28223 -0.14353,0.1104 -0.27121,0.23585 -0.38157,0.37934 -0.11039,0.14359 -0.20282,0.28882 -0.28014,0.43225 l -3.37881,7.02239 c -0.28706,0.54108 -0.54229,1.05367 -0.76304,1.53943 -0.20986,0.47487 -0.39686,0.95006 -0.56246,1.42476 -0.1767,-0.46368 -0.3813,-0.93452 -0.6131,-1.40926 -0.23196,-0.48584 -0.49159,-1.00283 -0.77858,-1.55493 l -3.41187,-7.02239 c -0.18774,-0.35331 -0.42312,-0.64151 -0.71028,-0.86224 -0.27601,-0.23192 -0.65879,-0.34859 -1.14467,-0.34859 z m 79.73124,0 -9.3404,24.13273 h 4.3711 c 0.4645,0 0.8514,-0.12313 1.1607,-0.36607 0.3197,-0.25396 0.5403,-0.53553 0.6618,-0.84476 l 1.4241,-4.20582 h 9.1754 l 1.425,4.20582 c 0.1541,0.35332 0.3812,0.64602 0.6793,0.87778 0.298,0.22089 0.6888,0.33305 1.1749,0.33305 h 4.3388 l -9.3407,-24.13273 z m -362.55462,4.356 c 1.07097,0 2.02575,0.17816 2.86493,0.53146 0.83918,0.35331 1.5453,0.86161 2.1195,1.52397 0.58522,0.66252 1.03176,1.47212 1.34093,2.43277 0.30923,0.94953 0.46542,2.02092 0.46542,3.21335 0,1.20351 -0.15619,2.28591 -0.46542,3.24649 -0.30917,0.94954 -0.75571,1.75485 -1.34093,2.41726 -0.5742,0.66254 -1.28032,1.17067 -2.1195,1.52404 -0.83918,0.34226 -1.79396,0.5139 -2.86493,0.5139 -1.08207,0 -2.04785,-0.17164 -2.89803,-0.5139 -0.83918,-0.35337 -1.552,-0.8615 -2.13714,-1.52404 -0.5742,-0.66241 -1.01633,-1.46772 -1.32556,-2.41726 -0.30922,-0.96058 -0.46315,-2.04298 -0.46315,-3.24649 0,-1.19243 0.15393,-2.26382 0.46315,-3.21335 0.30923,-0.96065 0.75136,-1.77025 1.32556,-2.43277 0.58514,-0.66236 1.29796,-1.17066 2.13714,-1.52397 0.85018,-0.3533 1.81596,-0.53146 2.89803,-0.53146 z m 144.11007,0.61303 c 0.18776,0.66253 0.37695,1.2807 0.56463,1.8549 0.18771,0.56303 0.36371,1.05589 0.52935,1.47541 l 2.23634,6.60773 h -6.60983 l 2.22097,-6.57455 c 0.1656,-0.4196 0.34152,-0.9168 0.52928,-1.49095 0.18774,-0.57421 0.36367,-1.199 0.52926,-1.87254 z m 221.29445,0 c 0.1878,0.66253 0.3741,1.2807 0.5619,1.8549 0.1878,0.56303 0.3638,1.05589 0.5292,1.47541 l 2.2369,6.60773 h -6.6082 l 2.2192,-6.57455 c 0.1654,-0.4196 0.3414,-0.9168 0.5293,-1.49095 0.1879,-0.57421 0.3662,-1.199 0.5317,-1.87254 z" />
        </g>
        <g
           aria-label="MOTANYA"
           id="text775"
           style="font-size:29.3333px;font-family:Hedland;-inkscape-font-specification:Hedland;letter-spacing:45px;fill:#000000" />
      </g>
    </g>
  </g>
</svg>
